<mxfile host="app.diagrams.net" modified="2022-06-27T04:48:45.545Z" agent="5.0 (Windows NT 10.0; Win64; x64) AppleWebKit/537.36 (KHTML, like Gecko) Chrome/102.0.0.0 Safari/537.36" etag="jEG9UikvxNQGceHVoDcb" version="20.0.3" type="github">
  <diagram id="zTGjoHPZzbSaOpuhK16s" name="Page-1">
    <mxGraphModel dx="1483" dy="770" grid="1" gridSize="10" guides="1" tooltips="1" connect="1" arrows="1" fold="1" page="1" pageScale="1" pageWidth="850" pageHeight="1100" math="0" shadow="0">
      <root>
        <mxCell id="0" />
        <mxCell id="1" parent="0" />
        <mxCell id="sIiz4X2skS8JqmBv5F3K-3" value="" style="edgeStyle=orthogonalEdgeStyle;rounded=0;orthogonalLoop=1;jettySize=auto;html=1;" edge="1" parent="1" source="sIiz4X2skS8JqmBv5F3K-1" target="sIiz4X2skS8JqmBv5F3K-2">
          <mxGeometry relative="1" as="geometry" />
        </mxCell>
        <mxCell id="sIiz4X2skS8JqmBv5F3K-1" value="Actor" style="shape=umlActor;verticalLabelPosition=bottom;verticalAlign=top;html=1;outlineConnect=0;" vertex="1" parent="1">
          <mxGeometry x="40" y="210" width="30" height="60" as="geometry" />
        </mxCell>
        <mxCell id="sIiz4X2skS8JqmBv5F3K-7" value="" style="edgeStyle=orthogonalEdgeStyle;rounded=0;orthogonalLoop=1;jettySize=auto;html=1;" edge="1" parent="1" source="sIiz4X2skS8JqmBv5F3K-2" target="sIiz4X2skS8JqmBv5F3K-6">
          <mxGeometry relative="1" as="geometry" />
        </mxCell>
        <mxCell id="sIiz4X2skS8JqmBv5F3K-75" style="edgeStyle=orthogonalEdgeStyle;rounded=0;sketch=0;orthogonalLoop=1;jettySize=auto;html=1;entryX=0;entryY=0.5;entryDx=0;entryDy=0;shadow=0;startArrow=none;" edge="1" parent="1" source="sIiz4X2skS8JqmBv5F3K-76" target="sIiz4X2skS8JqmBv5F3K-74">
          <mxGeometry relative="1" as="geometry" />
        </mxCell>
        <mxCell id="sIiz4X2skS8JqmBv5F3K-78" value="" style="edgeStyle=orthogonalEdgeStyle;rounded=0;sketch=0;orthogonalLoop=1;jettySize=auto;html=1;shadow=0;" edge="1" parent="1" source="sIiz4X2skS8JqmBv5F3K-2" target="sIiz4X2skS8JqmBv5F3K-76">
          <mxGeometry relative="1" as="geometry" />
        </mxCell>
        <mxCell id="sIiz4X2skS8JqmBv5F3K-2" value="&lt;b&gt;LOGIN&lt;/b&gt;" style="rhombus;whiteSpace=wrap;html=1;fillColor=#f5f5f5;fontColor=#333333;strokeColor=#666666;" vertex="1" parent="1">
          <mxGeometry x="130" y="200" width="80" height="80" as="geometry" />
        </mxCell>
        <mxCell id="sIiz4X2skS8JqmBv5F3K-33" value="" style="edgeStyle=orthogonalEdgeStyle;rounded=0;orthogonalLoop=1;jettySize=auto;html=1;" edge="1" parent="1" source="sIiz4X2skS8JqmBv5F3K-6">
          <mxGeometry relative="1" as="geometry">
            <mxPoint x="390" y="240" as="targetPoint" />
          </mxGeometry>
        </mxCell>
        <mxCell id="sIiz4X2skS8JqmBv5F3K-6" value="&lt;div style=&quot;&quot;&gt;&lt;b style=&quot;background-color: initial;&quot;&gt;FACULTY&amp;nbsp;&lt;/b&gt;&lt;/div&gt;&lt;div style=&quot;&quot;&gt;&lt;b style=&quot;background-color: initial;&quot;&gt;CO PO&lt;/b&gt;&lt;/div&gt;&lt;b&gt;&lt;div style=&quot;&quot;&gt;&lt;b style=&quot;background-color: initial;&quot;&gt;DASHBOARD&lt;/b&gt;&lt;/div&gt;&lt;/b&gt;" style="rounded=0;whiteSpace=wrap;html=1;direction=south;align=center;fillColor=#d5e8d4;strokeColor=#82b366;" vertex="1" parent="1">
          <mxGeometry x="260" y="77.5" width="110" height="325" as="geometry" />
        </mxCell>
        <mxCell id="sIiz4X2skS8JqmBv5F3K-67" value="" style="edgeStyle=orthogonalEdgeStyle;rounded=0;sketch=0;orthogonalLoop=1;jettySize=auto;html=1;shadow=0;" edge="1" parent="1" source="sIiz4X2skS8JqmBv5F3K-8" target="sIiz4X2skS8JqmBv5F3K-39">
          <mxGeometry relative="1" as="geometry" />
        </mxCell>
        <mxCell id="sIiz4X2skS8JqmBv5F3K-8" value="&lt;b&gt;QUESTION PAPER TEMPLATE&lt;/b&gt;" style="shape=process;whiteSpace=wrap;html=1;backgroundOutline=1;fillColor=#f8cecc;strokeColor=#b85450;" vertex="1" parent="1">
          <mxGeometry x="425" y="55" width="120" height="60" as="geometry" />
        </mxCell>
        <mxCell id="sIiz4X2skS8JqmBv5F3K-68" value="" style="edgeStyle=orthogonalEdgeStyle;rounded=0;sketch=0;orthogonalLoop=1;jettySize=auto;html=1;shadow=0;" edge="1" parent="1" source="sIiz4X2skS8JqmBv5F3K-9" target="sIiz4X2skS8JqmBv5F3K-41">
          <mxGeometry relative="1" as="geometry" />
        </mxCell>
        <mxCell id="sIiz4X2skS8JqmBv5F3K-9" value="&lt;b&gt;UPDATE MARKS&lt;/b&gt;" style="shape=process;whiteSpace=wrap;html=1;backgroundOutline=1;fillColor=#f8cecc;strokeColor=#b85450;" vertex="1" parent="1">
          <mxGeometry x="425" y="130" width="120" height="60" as="geometry" />
        </mxCell>
        <mxCell id="sIiz4X2skS8JqmBv5F3K-69" value="" style="edgeStyle=orthogonalEdgeStyle;rounded=0;sketch=0;orthogonalLoop=1;jettySize=auto;html=1;shadow=0;" edge="1" parent="1" source="sIiz4X2skS8JqmBv5F3K-10" target="sIiz4X2skS8JqmBv5F3K-42">
          <mxGeometry relative="1" as="geometry" />
        </mxCell>
        <mxCell id="sIiz4X2skS8JqmBv5F3K-10" value="&lt;b&gt;CO ATTAINMENT&lt;/b&gt;" style="shape=process;whiteSpace=wrap;html=1;backgroundOutline=1;fillColor=#f8cecc;strokeColor=#b85450;" vertex="1" parent="1">
          <mxGeometry x="425" y="200" width="120" height="60" as="geometry" />
        </mxCell>
        <mxCell id="sIiz4X2skS8JqmBv5F3K-70" value="" style="edgeStyle=orthogonalEdgeStyle;rounded=0;sketch=0;orthogonalLoop=1;jettySize=auto;html=1;shadow=0;" edge="1" parent="1" source="sIiz4X2skS8JqmBv5F3K-11" target="sIiz4X2skS8JqmBv5F3K-43">
          <mxGeometry relative="1" as="geometry" />
        </mxCell>
        <mxCell id="sIiz4X2skS8JqmBv5F3K-11" value="&lt;b&gt;GENERATE DOCUMENT&lt;/b&gt;" style="shape=process;whiteSpace=wrap;html=1;backgroundOutline=1;fillColor=#f8cecc;strokeColor=#b85450;" vertex="1" parent="1">
          <mxGeometry x="425" y="270" width="120" height="60" as="geometry" />
        </mxCell>
        <mxCell id="sIiz4X2skS8JqmBv5F3K-73" style="edgeStyle=orthogonalEdgeStyle;rounded=0;sketch=0;orthogonalLoop=1;jettySize=auto;html=1;entryX=0;entryY=0.5;entryDx=0;entryDy=0;shadow=0;" edge="1" parent="1" source="sIiz4X2skS8JqmBv5F3K-12" target="sIiz4X2skS8JqmBv5F3K-44">
          <mxGeometry relative="1" as="geometry" />
        </mxCell>
        <mxCell id="sIiz4X2skS8JqmBv5F3K-12" value="&lt;b&gt;DATA&amp;nbsp;&lt;br&gt;VISUALIZATION&lt;/b&gt;" style="shape=process;whiteSpace=wrap;html=1;backgroundOutline=1;fillColor=#f8cecc;strokeColor=#b85450;" vertex="1" parent="1">
          <mxGeometry x="425" y="340" width="120" height="60" as="geometry" />
        </mxCell>
        <mxCell id="sIiz4X2skS8JqmBv5F3K-21" style="edgeStyle=orthogonalEdgeStyle;rounded=0;orthogonalLoop=1;jettySize=auto;html=1;entryX=0.5;entryY=0;entryDx=0;entryDy=0;startArrow=none;" edge="1" parent="1" source="sIiz4X2skS8JqmBv5F3K-23" target="sIiz4X2skS8JqmBv5F3K-2">
          <mxGeometry relative="1" as="geometry" />
        </mxCell>
        <mxCell id="sIiz4X2skS8JqmBv5F3K-82" style="edgeStyle=orthogonalEdgeStyle;rounded=0;sketch=0;orthogonalLoop=1;jettySize=auto;html=1;entryX=1;entryY=0.5;entryDx=0;entryDy=0;shadow=0;" edge="1" parent="1" source="sIiz4X2skS8JqmBv5F3K-20" target="sIiz4X2skS8JqmBv5F3K-74">
          <mxGeometry relative="1" as="geometry">
            <Array as="points">
              <mxPoint x="830" y="600" />
              <mxPoint x="110" y="600" />
            </Array>
          </mxGeometry>
        </mxCell>
        <mxCell id="sIiz4X2skS8JqmBv5F3K-83" style="edgeStyle=orthogonalEdgeStyle;rounded=0;sketch=0;orthogonalLoop=1;jettySize=auto;html=1;shadow=0;" edge="1" parent="1" source="sIiz4X2skS8JqmBv5F3K-20">
          <mxGeometry relative="1" as="geometry">
            <mxPoint x="750" y="80" as="targetPoint" />
            <Array as="points">
              <mxPoint x="750" y="230" />
            </Array>
          </mxGeometry>
        </mxCell>
        <mxCell id="sIiz4X2skS8JqmBv5F3K-85" style="edgeStyle=orthogonalEdgeStyle;rounded=0;sketch=0;orthogonalLoop=1;jettySize=auto;html=1;shadow=0;" edge="1" parent="1" source="sIiz4X2skS8JqmBv5F3K-20">
          <mxGeometry relative="1" as="geometry">
            <mxPoint x="750" y="160.0000000000001" as="targetPoint" />
            <Array as="points">
              <mxPoint x="750" y="230" />
            </Array>
          </mxGeometry>
        </mxCell>
        <mxCell id="sIiz4X2skS8JqmBv5F3K-86" style="edgeStyle=orthogonalEdgeStyle;rounded=0;sketch=0;orthogonalLoop=1;jettySize=auto;html=1;entryX=0.75;entryY=1;entryDx=0;entryDy=0;shadow=0;" edge="1" parent="1">
          <mxGeometry relative="1" as="geometry">
            <mxPoint x="780" y="270" as="sourcePoint" />
            <mxPoint x="650" y="249.5" as="targetPoint" />
            <Array as="points">
              <mxPoint x="650" y="270" />
            </Array>
          </mxGeometry>
        </mxCell>
        <mxCell id="sIiz4X2skS8JqmBv5F3K-87" style="edgeStyle=orthogonalEdgeStyle;rounded=0;sketch=0;orthogonalLoop=1;jettySize=auto;html=1;entryX=0.5;entryY=1;entryDx=0;entryDy=0;shadow=0;" edge="1" parent="1" source="sIiz4X2skS8JqmBv5F3K-20" target="sIiz4X2skS8JqmBv5F3K-43">
          <mxGeometry relative="1" as="geometry">
            <Array as="points">
              <mxPoint x="800" y="339" />
              <mxPoint x="630" y="339" />
            </Array>
          </mxGeometry>
        </mxCell>
        <mxCell id="sIiz4X2skS8JqmBv5F3K-88" style="edgeStyle=orthogonalEdgeStyle;rounded=0;sketch=0;orthogonalLoop=1;jettySize=auto;html=1;entryX=0.5;entryY=1;entryDx=0;entryDy=0;shadow=0;" edge="1" parent="1">
          <mxGeometry relative="1" as="geometry">
            <mxPoint x="820" y="297" as="sourcePoint" />
            <mxPoint x="630" y="385.75" as="targetPoint" />
            <Array as="points">
              <mxPoint x="820" y="406" />
              <mxPoint x="630" y="406" />
            </Array>
          </mxGeometry>
        </mxCell>
        <mxCell id="sIiz4X2skS8JqmBv5F3K-90" style="edgeStyle=orthogonalEdgeStyle;rounded=0;sketch=0;orthogonalLoop=1;jettySize=auto;html=1;entryX=0.5;entryY=1;entryDx=0;entryDy=0;shadow=0;" edge="1" parent="1" source="sIiz4X2skS8JqmBv5F3K-20" target="sIiz4X2skS8JqmBv5F3K-45">
          <mxGeometry relative="1" as="geometry">
            <Array as="points">
              <mxPoint x="840" y="479" />
              <mxPoint x="740" y="479" />
            </Array>
          </mxGeometry>
        </mxCell>
        <mxCell id="sIiz4X2skS8JqmBv5F3K-20" value="&lt;b&gt;DB&lt;/b&gt;" style="shape=cylinder3;whiteSpace=wrap;html=1;boundedLbl=1;backgroundOutline=1;size=15;fillColor=#a20025;fontColor=#ffffff;strokeColor=#6F0000;" vertex="1" parent="1">
          <mxGeometry x="780" y="220" width="60" height="80" as="geometry" />
        </mxCell>
        <mxCell id="sIiz4X2skS8JqmBv5F3K-23" value="&lt;b&gt;USER VERIFICATION&lt;/b&gt;" style="text;html=1;strokeColor=none;fillColor=none;align=center;verticalAlign=middle;whiteSpace=wrap;rounded=0;" vertex="1" parent="1">
          <mxGeometry x="140" y="100" width="60" height="30" as="geometry" />
        </mxCell>
        <mxCell id="sIiz4X2skS8JqmBv5F3K-24" value="" style="edgeStyle=orthogonalEdgeStyle;rounded=0;orthogonalLoop=1;jettySize=auto;html=1;entryX=0.5;entryY=0;entryDx=0;entryDy=0;endArrow=none;" edge="1" parent="1" source="sIiz4X2skS8JqmBv5F3K-20" target="sIiz4X2skS8JqmBv5F3K-23">
          <mxGeometry relative="1" as="geometry">
            <mxPoint x="765" y="30" as="sourcePoint" />
            <mxPoint x="170" y="200" as="targetPoint" />
            <Array as="points">
              <mxPoint x="820" y="30" />
              <mxPoint x="170" y="30" />
            </Array>
          </mxGeometry>
        </mxCell>
        <mxCell id="sIiz4X2skS8JqmBv5F3K-25" value="&lt;b&gt;JWT Generation&lt;/b&gt;" style="text;html=1;strokeColor=none;fillColor=none;align=center;verticalAlign=middle;whiteSpace=wrap;rounded=0;" vertex="1" parent="1">
          <mxGeometry x="191" y="180" width="60" height="30" as="geometry" />
        </mxCell>
        <mxCell id="sIiz4X2skS8JqmBv5F3K-26" value="&lt;b&gt;SURVEY&lt;/b&gt;" style="shape=process;whiteSpace=wrap;html=1;backgroundOutline=1;fillColor=#f8cecc;strokeColor=#b85450;" vertex="1" parent="1">
          <mxGeometry x="425" y="410" width="120" height="60" as="geometry" />
        </mxCell>
        <mxCell id="sIiz4X2skS8JqmBv5F3K-27" value="" style="endArrow=none;html=1;rounded=0;edgeStyle=orthogonalEdgeStyle;" edge="1" parent="1">
          <mxGeometry width="50" height="50" relative="1" as="geometry">
            <mxPoint x="387" y="460" as="sourcePoint" />
            <mxPoint x="387" y="80" as="targetPoint" />
          </mxGeometry>
        </mxCell>
        <mxCell id="sIiz4X2skS8JqmBv5F3K-29" value="" style="endArrow=classic;html=1;rounded=0;entryX=0.011;entryY=0.833;entryDx=0;entryDy=0;entryPerimeter=0;" edge="1" parent="1" target="sIiz4X2skS8JqmBv5F3K-26">
          <mxGeometry width="50" height="50" relative="1" as="geometry">
            <mxPoint x="387" y="461" as="sourcePoint" />
            <mxPoint x="420" y="461" as="targetPoint" />
            <Array as="points" />
          </mxGeometry>
        </mxCell>
        <mxCell id="sIiz4X2skS8JqmBv5F3K-30" value="" style="endArrow=classic;html=1;rounded=0;entryX=0;entryY=0.457;entryDx=0;entryDy=0;entryPerimeter=0;" edge="1" parent="1" target="sIiz4X2skS8JqmBv5F3K-8">
          <mxGeometry width="50" height="50" relative="1" as="geometry">
            <mxPoint x="388" y="81" as="sourcePoint" />
            <mxPoint x="420" y="81" as="targetPoint" />
            <Array as="points" />
          </mxGeometry>
        </mxCell>
        <mxCell id="sIiz4X2skS8JqmBv5F3K-59" style="edgeStyle=orthogonalEdgeStyle;rounded=0;sketch=0;orthogonalLoop=1;jettySize=auto;html=1;shadow=0;" edge="1" parent="1" source="sIiz4X2skS8JqmBv5F3K-39" target="sIiz4X2skS8JqmBv5F3K-20">
          <mxGeometry relative="1" as="geometry" />
        </mxCell>
        <mxCell id="sIiz4X2skS8JqmBv5F3K-91" value="" style="edgeStyle=orthogonalEdgeStyle;rounded=0;sketch=0;orthogonalLoop=1;jettySize=auto;html=1;shadow=0;" edge="1" parent="1" source="sIiz4X2skS8JqmBv5F3K-39" target="sIiz4X2skS8JqmBv5F3K-8">
          <mxGeometry relative="1" as="geometry" />
        </mxCell>
        <mxCell id="sIiz4X2skS8JqmBv5F3K-39" value="&lt;b&gt;Token&lt;br&gt;Validate&lt;/b&gt;" style="rounded=1;whiteSpace=wrap;html=1;align=center;fillColor=#e1d5e7;strokeColor=#9673a6;" vertex="1" parent="1">
          <mxGeometry x="590" y="66.25" width="80" height="37.5" as="geometry" />
        </mxCell>
        <mxCell id="sIiz4X2skS8JqmBv5F3K-60" style="edgeStyle=orthogonalEdgeStyle;rounded=0;sketch=0;orthogonalLoop=1;jettySize=auto;html=1;shadow=0;" edge="1" parent="1" source="sIiz4X2skS8JqmBv5F3K-41" target="sIiz4X2skS8JqmBv5F3K-20">
          <mxGeometry relative="1" as="geometry" />
        </mxCell>
        <mxCell id="sIiz4X2skS8JqmBv5F3K-97" style="edgeStyle=orthogonalEdgeStyle;rounded=0;sketch=0;orthogonalLoop=1;jettySize=auto;html=1;entryX=1;entryY=0.5;entryDx=0;entryDy=0;shadow=0;" edge="1" parent="1" source="sIiz4X2skS8JqmBv5F3K-41" target="sIiz4X2skS8JqmBv5F3K-9">
          <mxGeometry relative="1" as="geometry" />
        </mxCell>
        <mxCell id="sIiz4X2skS8JqmBv5F3K-41" value="&lt;b&gt;Token&lt;br&gt;Validate&lt;/b&gt;" style="rounded=1;whiteSpace=wrap;html=1;align=center;fillColor=#e1d5e7;strokeColor=#9673a6;" vertex="1" parent="1">
          <mxGeometry x="590" y="141.25" width="80" height="37.5" as="geometry" />
        </mxCell>
        <mxCell id="sIiz4X2skS8JqmBv5F3K-61" style="edgeStyle=orthogonalEdgeStyle;rounded=0;sketch=0;orthogonalLoop=1;jettySize=auto;html=1;shadow=0;" edge="1" parent="1" source="sIiz4X2skS8JqmBv5F3K-42" target="sIiz4X2skS8JqmBv5F3K-20">
          <mxGeometry relative="1" as="geometry" />
        </mxCell>
        <mxCell id="sIiz4X2skS8JqmBv5F3K-95" style="edgeStyle=orthogonalEdgeStyle;rounded=0;sketch=0;orthogonalLoop=1;jettySize=auto;html=1;shadow=0;" edge="1" parent="1" source="sIiz4X2skS8JqmBv5F3K-42" target="sIiz4X2skS8JqmBv5F3K-10">
          <mxGeometry relative="1" as="geometry" />
        </mxCell>
        <mxCell id="sIiz4X2skS8JqmBv5F3K-42" value="&lt;b&gt;Token&lt;br&gt;Validate&lt;/b&gt;" style="rounded=1;whiteSpace=wrap;html=1;align=center;fillColor=#e1d5e7;strokeColor=#9673a6;" vertex="1" parent="1">
          <mxGeometry x="600" y="211.25" width="80" height="37.5" as="geometry" />
        </mxCell>
        <mxCell id="sIiz4X2skS8JqmBv5F3K-62" style="edgeStyle=orthogonalEdgeStyle;rounded=0;sketch=0;orthogonalLoop=1;jettySize=auto;html=1;exitX=1;exitY=0.5;exitDx=0;exitDy=0;entryX=0.5;entryY=1;entryDx=0;entryDy=0;entryPerimeter=0;shadow=0;" edge="1" parent="1" source="sIiz4X2skS8JqmBv5F3K-43" target="sIiz4X2skS8JqmBv5F3K-20">
          <mxGeometry relative="1" as="geometry" />
        </mxCell>
        <mxCell id="sIiz4X2skS8JqmBv5F3K-98" style="edgeStyle=orthogonalEdgeStyle;rounded=0;sketch=0;orthogonalLoop=1;jettySize=auto;html=1;entryX=1;entryY=0.5;entryDx=0;entryDy=0;shadow=0;" edge="1" parent="1" source="sIiz4X2skS8JqmBv5F3K-43" target="sIiz4X2skS8JqmBv5F3K-11">
          <mxGeometry relative="1" as="geometry" />
        </mxCell>
        <mxCell id="sIiz4X2skS8JqmBv5F3K-43" value="&lt;b&gt;Token&lt;br&gt;Validate&lt;/b&gt;" style="rounded=1;whiteSpace=wrap;html=1;align=center;fillColor=#e1d5e7;strokeColor=#9673a6;" vertex="1" parent="1">
          <mxGeometry x="590" y="281.25" width="80" height="37.5" as="geometry" />
        </mxCell>
        <mxCell id="sIiz4X2skS8JqmBv5F3K-63" style="edgeStyle=orthogonalEdgeStyle;rounded=0;sketch=0;orthogonalLoop=1;jettySize=auto;html=1;entryX=0.5;entryY=1;entryDx=0;entryDy=0;entryPerimeter=0;shadow=0;" edge="1" parent="1" source="sIiz4X2skS8JqmBv5F3K-44" target="sIiz4X2skS8JqmBv5F3K-20">
          <mxGeometry relative="1" as="geometry" />
        </mxCell>
        <mxCell id="sIiz4X2skS8JqmBv5F3K-99" style="edgeStyle=orthogonalEdgeStyle;rounded=0;sketch=0;orthogonalLoop=1;jettySize=auto;html=1;shadow=0;" edge="1" parent="1" source="sIiz4X2skS8JqmBv5F3K-44" target="sIiz4X2skS8JqmBv5F3K-12">
          <mxGeometry relative="1" as="geometry" />
        </mxCell>
        <mxCell id="sIiz4X2skS8JqmBv5F3K-44" value="&lt;b&gt;Token&lt;br&gt;Validate&lt;/b&gt;" style="rounded=1;whiteSpace=wrap;html=1;align=center;fillColor=#e1d5e7;strokeColor=#9673a6;" vertex="1" parent="1">
          <mxGeometry x="590" y="351.25" width="80" height="37.5" as="geometry" />
        </mxCell>
        <mxCell id="sIiz4X2skS8JqmBv5F3K-66" style="edgeStyle=orthogonalEdgeStyle;rounded=0;sketch=0;orthogonalLoop=1;jettySize=auto;html=1;shadow=0;" edge="1" parent="1" source="sIiz4X2skS8JqmBv5F3K-45">
          <mxGeometry relative="1" as="geometry">
            <mxPoint x="810" y="300" as="targetPoint" />
          </mxGeometry>
        </mxCell>
        <mxCell id="sIiz4X2skS8JqmBv5F3K-106" style="edgeStyle=orthogonalEdgeStyle;rounded=0;sketch=0;orthogonalLoop=1;jettySize=auto;html=1;entryX=1;entryY=0.5;entryDx=0;entryDy=0;shadow=0;" edge="1" parent="1" source="sIiz4X2skS8JqmBv5F3K-45" target="sIiz4X2skS8JqmBv5F3K-48">
          <mxGeometry relative="1" as="geometry">
            <Array as="points">
              <mxPoint x="740" y="465" />
            </Array>
          </mxGeometry>
        </mxCell>
        <mxCell id="sIiz4X2skS8JqmBv5F3K-107" style="edgeStyle=orthogonalEdgeStyle;rounded=0;sketch=0;orthogonalLoop=1;jettySize=auto;html=1;entryX=1;entryY=0.5;entryDx=0;entryDy=0;shadow=0;" edge="1" parent="1" source="sIiz4X2skS8JqmBv5F3K-45" target="sIiz4X2skS8JqmBv5F3K-47">
          <mxGeometry relative="1" as="geometry">
            <Array as="points">
              <mxPoint x="740" y="420" />
              <mxPoint x="680" y="420" />
              <mxPoint x="680" y="425" />
            </Array>
          </mxGeometry>
        </mxCell>
        <mxCell id="sIiz4X2skS8JqmBv5F3K-45" value="&lt;b&gt;Token&lt;br&gt;Validate&lt;/b&gt;" style="rounded=1;whiteSpace=wrap;html=1;align=center;fillColor=#e1d5e7;strokeColor=#9673a6;" vertex="1" parent="1">
          <mxGeometry x="700" y="421.25" width="80" height="37.5" as="geometry" />
        </mxCell>
        <mxCell id="sIiz4X2skS8JqmBv5F3K-104" style="edgeStyle=orthogonalEdgeStyle;rounded=0;sketch=0;orthogonalLoop=1;jettySize=auto;html=1;entryX=0;entryY=0.5;entryDx=0;entryDy=0;shadow=0;" edge="1" parent="1" source="sIiz4X2skS8JqmBv5F3K-47" target="sIiz4X2skS8JqmBv5F3K-45">
          <mxGeometry relative="1" as="geometry" />
        </mxCell>
        <mxCell id="sIiz4X2skS8JqmBv5F3K-47" value="&lt;b&gt;Direct&lt;/b&gt;" style="shape=process;whiteSpace=wrap;html=1;backgroundOutline=1;fillColor=#f8cecc;strokeColor=#b85450;" vertex="1" parent="1">
          <mxGeometry x="580" y="410" width="90" height="30" as="geometry" />
        </mxCell>
        <mxCell id="sIiz4X2skS8JqmBv5F3K-105" style="edgeStyle=orthogonalEdgeStyle;rounded=0;sketch=0;orthogonalLoop=1;jettySize=auto;html=1;entryX=0;entryY=0.5;entryDx=0;entryDy=0;shadow=0;" edge="1" parent="1" source="sIiz4X2skS8JqmBv5F3K-48" target="sIiz4X2skS8JqmBv5F3K-45">
          <mxGeometry relative="1" as="geometry" />
        </mxCell>
        <mxCell id="sIiz4X2skS8JqmBv5F3K-48" value="&lt;b&gt;Indirect&lt;/b&gt;" style="shape=process;whiteSpace=wrap;html=1;backgroundOutline=1;fillColor=#f8cecc;strokeColor=#b85450;" vertex="1" parent="1">
          <mxGeometry x="580" y="450" width="90" height="30" as="geometry" />
        </mxCell>
        <mxCell id="sIiz4X2skS8JqmBv5F3K-81" style="edgeStyle=orthogonalEdgeStyle;rounded=0;sketch=0;orthogonalLoop=1;jettySize=auto;html=1;shadow=0;" edge="1" parent="1" source="sIiz4X2skS8JqmBv5F3K-74" target="sIiz4X2skS8JqmBv5F3K-20">
          <mxGeometry relative="1" as="geometry">
            <Array as="points">
              <mxPoint x="820" y="550" />
            </Array>
          </mxGeometry>
        </mxCell>
        <mxCell id="sIiz4X2skS8JqmBv5F3K-74" value="" style="rounded=0;whiteSpace=wrap;html=1;direction=south;fillColor=#d5e8d4;strokeColor=#82b366;" vertex="1" parent="1">
          <mxGeometry x="40" y="388.75" width="140" height="182.5" as="geometry" />
        </mxCell>
        <mxCell id="sIiz4X2skS8JqmBv5F3K-76" value="&lt;b&gt;IF ADMIN&lt;/b&gt;" style="text;html=1;align=center;verticalAlign=middle;resizable=0;points=[];autosize=1;strokeColor=none;fillColor=none;" vertex="1" parent="1">
          <mxGeometry x="110" y="305" width="80" height="30" as="geometry" />
        </mxCell>
        <mxCell id="sIiz4X2skS8JqmBv5F3K-79" value="&lt;b&gt;Attainment Level Serach&lt;/b&gt;" style="shape=process;whiteSpace=wrap;html=1;backgroundOutline=1;fillColor=#f8cecc;strokeColor=#b85450;" vertex="1" parent="1">
          <mxGeometry x="50" y="410" width="120" height="60" as="geometry" />
        </mxCell>
        <mxCell id="sIiz4X2skS8JqmBv5F3K-80" value="&lt;b&gt;PO&lt;br&gt;Table Creation&lt;/b&gt;" style="shape=process;whiteSpace=wrap;html=1;backgroundOutline=1;fillColor=#f8cecc;strokeColor=#b85450;" vertex="1" parent="1">
          <mxGeometry x="50" y="480" width="120" height="60" as="geometry" />
        </mxCell>
        <mxCell id="sIiz4X2skS8JqmBv5F3K-100" value="" style="endArrow=classic;startArrow=classic;html=1;rounded=0;shadow=0;sketch=0;entryX=0;entryY=0.75;entryDx=0;entryDy=0;" edge="1" parent="1">
          <mxGeometry width="50" height="50" relative="1" as="geometry">
            <mxPoint x="545" y="423" as="sourcePoint" />
            <mxPoint x="580" y="423.5" as="targetPoint" />
            <Array as="points" />
          </mxGeometry>
        </mxCell>
        <mxCell id="sIiz4X2skS8JqmBv5F3K-101" value="" style="endArrow=classic;startArrow=classic;html=1;rounded=0;shadow=0;sketch=0;entryX=0;entryY=0.75;entryDx=0;entryDy=0;" edge="1" parent="1">
          <mxGeometry width="50" height="50" relative="1" as="geometry">
            <mxPoint x="544" y="459" as="sourcePoint" />
            <mxPoint x="579" y="459.5" as="targetPoint" />
            <Array as="points" />
          </mxGeometry>
        </mxCell>
      </root>
    </mxGraphModel>
  </diagram>
</mxfile>
